<svg xmlns="http://www.w3.org/2000/svg" width="36" height="36" fill="none"><g clip-path="url(#a)"><circle cx="18" cy="18" r="18" fill="url(#b)"/><path fill="#fff" fill-rule="evenodd" d="M18 29c6.075 0 11-4.925 11-11S24.075 7 18 7 7 11.925 7 18s4.925 11 11 11Zm0-5a6 6 0 1 0 0-12 6 6 0 0 0 0 12Z" clip-rule="evenodd"/><path fill="url(#c)" fill-rule="evenodd" d="M12.325 8.17c.388-.224.784-.423 1.186-.597a.198.198 0 0 1 .25.084l2.672 4.629a.207.207 0 0 1-.121.299 5.687 5.687 0 0 0-2.158 1.246.207.207 0 0 1-.32-.045l-2.672-4.629a.198.198 0 0 1 .053-.258c.351-.26.721-.505 1.11-.729Zm.26 11.518a.207.207 0 0 0-.3-.12l-4.628 2.671a.197.197 0 0 0-.084.25A11.477 11.477 0 0 0 8.9 24.785c.06.08.171.103.258.053l4.629-2.673a.207.207 0 0 0 .045-.32 5.689 5.689 0 0 1-1.246-2.157Zm7.103 3.727a.207.207 0 0 0-.12.3l2.671 4.628c.05.087.157.123.25.084a11.47 11.47 0 0 0 2.296-1.326c.08-.06.103-.171.053-.258l-2.673-4.629a.207.207 0 0 0-.32-.045 5.69 5.69 0 0 1-2.157 1.246Zm3.727-7.103c.04.126.185.187.3.12l4.628-2.671a.198.198 0 0 0 .084-.25 11.467 11.467 0 0 0-1.326-2.296.197.197 0 0 0-.258-.053l-4.629 2.673a.207.207 0 0 0-.045.32 5.69 5.69 0 0 1 1.246 2.157Z" clip-rule="evenodd"/></g><defs><radialGradient id="b" cx="0" cy="0" r="1" gradientTransform="rotate(53.973 -.935 10.65) scale(27.9802)" gradientUnits="userSpaceOnUse"><stop stop-color="#96CDFF"/><stop offset="1" stop-color="#42A4FF"/></radialGradient><radialGradient id="c" cx="0" cy="0" r="1" gradientTransform="matrix(4.8734 8.44098 -7.38268 4.26239 18 18)" gradientUnits="userSpaceOnUse"><stop stop-color="#F76E6E"/><stop offset="1" stop-color="#F82F2F"/></radialGradient><clipPath id="a"><path fill="#fff" d="M0 0h36v36H0z"/></clipPath></defs></svg>