<?xml version="1.0" standalone="no"?>
<!DOCTYPE svg PUBLIC "-//W3C//DTD SVG 20010904//EN"
 "http://www.w3.org/TR/2001/REC-SVG-20010904/DTD/svg10.dtd">
<svg version="1.0" xmlns="http://www.w3.org/2000/svg"
 width="700.000000pt" height="700.000000pt" viewBox="0 0 700.000000 700.000000"
 preserveAspectRatio="xMidYMid meet">
<metadata>
Created by potrace 1.14, written by Peter Selinger 2001-2017
</metadata>
<g transform="translate(0.000000,700.000000) scale(0.100000,-0.100000)"
fill="#000000" stroke="none">
<path d="M3188 6990 c-830 -80 -1585 -435 -2168 -1020 -548 -549 -884 -1234
-996 -2025 -21 -155 -30 -560 -15 -737 47 -551 229 -1097 521 -1566 154 -246
389 -528 603 -723 577 -526 1303 -845 2075 -910 179 -15 582 -6 742 16 391 54
724 154 1068 320 379 184 666 388 962 685 580 581 937 1343 1010 2160 13 148
13 472 0 620 -89 988 -593 1893 -1387 2489 -178 134 -305 213 -508 317 -370
190 -725 301 -1150 360 -137 18 -617 28 -757 14z m447 -1360 c574 -39 1077
-285 1462 -713 45 -51 81 -96 80 -100 -1 -5 -191 -118 -422 -252 l-420 -243
-30 28 c-119 110 -302 217 -455 265 -183 57 -407 69 -585 30 -55 -12 -72 -12
-81 -2 -14 16 -473 812 -476 828 -4 14 120 61 249 94 165 43 257 56 518 73 11
1 83 -3 160 -8z m-1201 -875 l243 -420 -54 -63 c-204 -242 -304 -525 -289
-822 3 -63 13 -146 21 -185 12 -55 12 -72 2 -81 -16 -15 -811 -472 -827 -476
-28 -7 -115 290 -145 497 -22 148 -22 443 0 590 64 434 242 815 529 1135 76
86 257 251 269 247 5 -1 118 -191 251 -422z m3084 -555 c126 -359 149 -790 63
-1176 -69 -308 -214 -609 -418 -864 -88 -109 -307 -323 -341 -332 -8 -2 -110
165 -256 417 l-243 420 51 60 c136 158 208 297 263 504 23 84 26 117 26 266 1
128 -3 187 -16 239 -10 39 -14 73 -9 78 22 22 838 486 844 480 3 -4 20 -45 36
-92z m-2673 -1668 c124 -83 277 -147 440 -183 89 -20 362 -17 449 4 42 11 73
14 79 8 22 -22 485 -837 479 -843 -13 -13 -216 -77 -312 -98 -239 -53 -541
-67 -766 -35 -394 55 -756 212 -1060 458 -119 97 -316 299 -326 335 -2 7 168
112 417 256 l420 243 60 -52 c33 -29 87 -70 120 -93z"/>
</g>
</svg>
